<svg xmlns="http://www.w3.org/2000/svg" width="187.655" height="52" viewBox="0 0 187.655 52">
  <g id="learn" transform="translate(-416 -735)">
    <path id="Path_17" data-name="Path 17" d="M26,0A26,26,0,1,1,0,26,26,26,0,0,1,26,0Z" transform="translate(416 735)" fill="#959492"/>
    <g id="Group_32" data-name="Group 32" transform="translate(-198.406 41)" opacity="0.79">
      <text id="learn_more" data-name="learn more" transform="translate(634.407 725.737)" font-size="20" font-family="CenturyGothic-Bold, Century Gothic" font-weight="700"><tspan x="0" y="0">Learn More</tspan></text>
    </g>
    <g id="left_1_" data-name="left (1)" transform="translate(571 750)">
      <g id="Group_8" data-name="Group 8" transform="translate(0 0)">
        <path id="Path_4" data-name="Path 4" d="M.681,95.537H30.333L21.29,86.494a.68.68,0,0,1,.962-.962l10.2,10.2a.68.68,0,0,1,0,.962l-10.2,10.2a.68.68,0,0,1-.962-.962L30.333,96.9H.681a.68.68,0,1,1,0-1.361Z" transform="translate(-0.001 -85.333)"/>
      </g>
    </g>
    <g id="left_1_2" data-name="left (1)" transform="translate(571 750)">
      <g id="Group_8-2" data-name="Group 8" transform="translate(0 0)">
        <path id="Path_4-2" data-name="Path 4" d="M.681,95.537H30.333L21.29,86.494a.68.68,0,0,1,.962-.962l10.2,10.2a.68.68,0,0,1,0,.962l-10.2,10.2a.68.68,0,0,1-.962-.962L30.333,96.9H.681a.68.68,0,1,1,0-1.361Z" transform="translate(-0.001 -85.333)"/>
      </g>
    </g>
  </g>
</svg>
