<svg xmlns="http://www.w3.org/2000/svg" xmlns:xlink="http://www.w3.org/1999/xlink" width="345.501" height="281.294" viewBox="0 0 345.501 281.294">
  <defs>
    <filter id="M_A_S" x="17.073" y="12.434" width="108.379" height="142.423" filterUnits="userSpaceOnUse">
      <feOffset dx="21" dy="16" input="SourceAlpha"/>
      <feGaussianBlur stdDeviation="14.5" result="blur"/>
      <feFlood flood-opacity="0.161"/>
      <feComposite operator="in" in2="blur"/>
      <feComposite in="SourceGraphic"/>
    </filter>
  </defs>
  <g id="maths-angle-logo" transform="translate(-33.618 1.342)">
    <g id="Group_41" data-name="Group 41" opacity="0.12">
      <path id="Path_18" data-name="Path 18" d="M4783.258,1602.791l-77.5,279.774,343.837-164.751-9.15-115.024" transform="translate(-4671 -1604)" fill="none" stroke="#000" stroke-width="1"/>
      <path id="Path_19" data-name="Path 19" d="M4716.063,1844.247s14.127-5.813,21.251-.762,7.242,20.965,7.242,20.965l-39.166,18.583Z" transform="translate(-4671 -1604)" fill="#959492" stroke="#959492" stroke-width="1"/>
      <ellipse id="Ellipse_7" data-name="Ellipse 7" cx="7.5" cy="7" rx="7.5" ry="7" transform="translate(44 252)" fill="#fff"/>
    </g>
    <g transform="matrix(1, 0, 0, 1, 33.62, -1.34)" filter="url(#M_A_S)">
      <text id="M_A_S-2" data-name="M
A
S" transform="matrix(0.99, 0.14, -0.14, 0.99, 45, 54.79)" fill="#959492" font-size="15" font-family="CenturyGothic-Bold, Century Gothic" font-weight="700" opacity="0.22"><tspan x="0" y="0">M</tspan><tspan x="0" y="18">A</tspan><tspan x="0" y="36">S</tspan></text>
    </g>
    <g id="Group_102" data-name="Group 102" transform="translate(-12)">
      <rect id="Rectangle_26" data-name="Rectangle 26" width="257" height="66" transform="translate(120 20)" fill="#fff"/>
      <text id="Math_Architects_Studio" data-name="Math  Architects Studio" transform="translate(123.654 59.702)" font-size="28" font-family="CenturyGothic-Bold, Century Gothic" font-weight="700"><tspan x="0" y="0">M</tspan><tspan y="0" xml:space="preserve" font-size="18">ath  </tspan><tspan y="0" font-size="22">Architects </tspan><tspan y="0">S</tspan><tspan y="0" font-size="18">tudio</tspan></text>
    </g>
  </g>
</svg>
