<svg id="menu" xmlns="http://www.w3.org/2000/svg" width="48.529" height="48.529" viewBox="0 0 48.529 48.529">
  <path id="Path_5" data-name="Path 5" d="M24.265,48.529A24.265,24.265,0,1,1,48.529,24.265,24.292,24.292,0,0,1,24.265,48.529Zm0-45.5A21.232,21.232,0,1,0,45.5,24.265,21.255,21.255,0,0,0,24.265,3.033Zm0,0"/>
  <path id="Path_6" data-name="Path 6" d="M168.036,152.365H150.849a1.517,1.517,0,1,1,0-3.033h17.188a1.517,1.517,0,0,1,0,3.033Zm0,0" transform="translate(-135.178 -135.178)"/>
  <path id="Path_7" data-name="Path 7" d="M164.788,243.119h-14.2a1.6,1.6,0,0,1,0-3.119h14.2a1.6,1.6,0,0,1,0,3.119Zm0,0" transform="translate(-135.178 -217.252)"/>
  <path id="Path_8" data-name="Path 8" d="M157.772,333.7h-7.755c-.378,0-.684-.679-.684-1.517s.307-1.517.684-1.517h7.755c.378,0,.684.679.684,1.517S158.149,333.7,157.772,333.7Zm0,0" transform="translate(-135.178 -299.326)"/>
</svg>
