<svg xmlns="http://www.w3.org/2000/svg" width="221.655" height="62" viewBox="0 0 221.655 62">
  <g id="semore" transform="translate(-157 -2178)">
    <circle id="Ellipse_6" data-name="Ellipse 6" cx="31" cy="31" r="31" transform="translate(157 2178)" fill="#959492"/>
    <g id="Group_34" data-name="Group 34" transform="translate(-479.407 1492)" opacity="0.79">
      <text id="See_more_work" data-name="See more work" transform="translate(653.407 723.737)" font-size="20" font-family="CenturyGothic-Bold, Century Gothic" font-weight="700"><tspan x="0" y="0">See More Work</tspan></text>
    </g>
    <g id="left_1_" data-name="left (1)" transform="translate(346 2199)">
      <g id="Group_8" data-name="Group 8" transform="translate(0 0)">
        <path id="Path_4" data-name="Path 4" d="M.681,95.537H30.333L21.29,86.494a.68.68,0,0,1,.962-.962l10.2,10.2a.68.68,0,0,1,0,.962l-10.2,10.2a.68.68,0,0,1-.962-.962L30.333,96.9H.681a.68.68,0,1,1,0-1.361Z" transform="translate(-0.001 -85.333)"/>
      </g>
    </g>
  </g>
</svg>
