<svg xmlns="http://www.w3.org/2000/svg" width="173.834" height="173.834" viewBox="0 0 173.834 173.834">
  <path id="facebook" d="M25.464,173.834h56.7V112.041H61.793V91.67H82.164V66.206a25.493,25.493,0,0,1,25.464-25.464h25.464V61.113H112.72A10.2,10.2,0,0,0,102.535,71.3V91.67h29.638l-3.4,20.371H102.535v61.793H148.37a25.493,25.493,0,0,0,25.464-25.464V25.464A25.493,25.493,0,0,0,148.37,0H25.464A25.493,25.493,0,0,0,0,25.464V148.37A25.493,25.493,0,0,0,25.464,173.834ZM10.186,25.464A15.3,15.3,0,0,1,25.464,10.186H148.37a15.3,15.3,0,0,1,15.278,15.278V148.37a15.3,15.3,0,0,1-15.278,15.278H112.72V122.227h24.685l6.79-40.742H112.72V71.3h30.557V30.557h-35.65a35.689,35.689,0,0,0-35.65,35.65V81.485H51.607v40.742H71.978v41.421H25.464A15.3,15.3,0,0,1,10.186,148.37Zm0,0" fill="#f7f7f7"/>
</svg>
