<svg id="instagram" xmlns="http://www.w3.org/2000/svg" width="173.766" height="173.8" viewBox="0 0 173.766 173.8">
  <path id="Path_66" data-name="Path 66" d="M173.773,51.1c-.407-9.235-1.9-15.583-4.04-21.085A44.521,44.521,0,0,0,144.3,4.584C138.77,2.444,132.454.951,123.219.544,113.916.1,110.962,0,87.365,0S60.815.1,51.546.509c-9.235.407-15.583,1.9-21.083,4.04A42.406,42.406,0,0,0,15.048,14.6,42.79,42.79,0,0,0,5.032,29.98C2.893,35.514,1.4,41.829.992,51.063.551,60.367.449,63.32.449,86.917s.1,26.55.509,35.819c.407,9.235,1.9,15.583,4.041,21.085a44.514,44.514,0,0,0,25.429,25.429c5.534,2.139,11.849,3.633,21.085,4.04,9.268.408,12.223.509,35.819.509s26.55-.1,35.819-.509c9.235-.407,15.583-1.9,21.083-4.04a44.455,44.455,0,0,0,25.431-25.429c2.138-5.534,3.633-11.85,4.04-21.085.407-9.269.509-12.223.509-35.819s-.034-26.55-.442-35.819Zm-15.651,70.96c-.374,8.488-1.8,13.072-2.988,16.127a28.83,28.83,0,0,1-16.5,16.5c-3.056,1.188-7.672,2.614-16.127,2.987-9.167.408-11.916.509-35.106.509s-25.973-.1-35.107-.509c-8.488-.373-13.071-1.8-16.127-2.987a26.743,26.743,0,0,1-9.981-6.485,27.021,27.021,0,0,1-6.485-9.981c-1.188-3.056-2.614-7.674-2.987-16.127-.408-9.167-.509-11.918-.509-35.107s.1-25.973.509-35.106c.373-8.488,1.8-13.071,2.987-16.127a26.416,26.416,0,0,1,6.52-9.983A26.98,26.98,0,0,1,36.2,19.285c3.056-1.188,7.674-2.614,16.127-2.988,9.167-.407,11.918-.509,35.106-.509,23.224,0,25.973.1,35.107.509,8.488.374,13.072,1.8,16.127,2.988a26.724,26.724,0,0,1,9.981,6.484,27.015,27.015,0,0,1,6.485,9.983c1.188,3.056,2.614,7.672,2.988,16.127.407,9.167.509,11.916.509,35.106s-.1,25.906-.509,35.073Zm0,0" transform="translate(-0.449 0)" fill="#f7f7f7"/>
  <path id="Path_67" data-name="Path 67" d="M169.6,124.5a44.647,44.647,0,1,0,44.647,44.647A44.658,44.658,0,0,0,169.6,124.5Zm0,73.608a28.961,28.961,0,1,1,28.961-28.961A28.966,28.966,0,0,1,169.6,198.108Zm0,0" transform="translate(-82.679 -82.23)" fill="#f7f7f7"/>
  <path id="Path_68" data-name="Path 68" d="M383.3,99.025A10.424,10.424,0,1,1,372.873,88.6,10.424,10.424,0,0,1,383.3,99.025Zm0,0" transform="translate(-239.543 -58.52)" fill="#f7f7f7"/>
</svg>
