<svg xmlns="http://www.w3.org/2000/svg" width="185.66" height="209.565" viewBox="0 0 185.66 209.565">
  <g id="location" transform="translate(-10.4 -3.551)">
    <path id="Path_69" data-name="Path 69" d="M131.563,141.27c.4-.656.807-1.3,1.21-1.969,18.137-30.028,27.264-56.3,27.134-78.064a56.676,56.676,0,1,0-113.352-.01c-.132,21.778,9,48.049,27.134,78.074.4.669.807,1.313,1.21,1.969-38.185,4.719-63.5,18.366-63.5,34.569,0,20.342,40.328,36.276,91.83,36.276s91.83-15.934,91.83-36.276c0-16.2-25.314-29.85-63.5-34.569Zm-78.9-80.034a50.566,50.566,0,0,1,101.131.01c.261,43.407-40.312,96.932-50.567,109.768C92.975,158.178,52.4,104.651,52.666,61.236ZM103.23,206.005c-51.277,0-85.72-15.6-85.72-30.166C17.51,162.92,43.05,150.9,78.5,147a323.5,323.5,0,0,0,22.4,30.821,3.052,3.052,0,0,0,4.654,0A323.507,323.507,0,0,0,127.963,147c35.44,3.9,60.989,15.911,60.989,28.837,0,14.567-34.445,30.166-85.722,30.166Z" transform="translate(0)" fill="#f7f7f7" stroke="#f7f7f7" stroke-width="2"/>
    <path id="Path_70" data-name="Path 70" d="M64.769,113.674c-13.558-1.735-24.441-4.791-30.636-8.6a3.055,3.055,0,1,0-3.2,5.2c6.919,4.252,18.661,7.611,33.061,9.453a2.973,2.973,0,0,0,.391.024,3.055,3.055,0,0,0,.384-6.084Z" transform="translate(13.482 74.636)" fill="#f7f7f7" stroke="#f7f7f7" stroke-width="2"/>
    <path id="Path_71" data-name="Path 71" d="M73.856,110.68c-4.258.1-8.692.075-13.02-.084a3.057,3.057,0,1,0-.225,6.11c2.685.1,5.412.148,8.115.148q2.666,0,5.274-.063a3.055,3.055,0,0,0,2.984-3.125,3.02,3.02,0,0,0-3.127-2.987Z" transform="translate(34.506 79.089)" fill="#f7f7f7" stroke="#f7f7f7" stroke-width="2"/>
    <path id="Path_72" data-name="Path 72" d="M100.82,48.04a25.8,25.8,0,1,0-25.8,25.8,25.8,25.8,0,0,0,25.8-25.8Zm-45.487,0A19.689,19.689,0,1,1,75.024,67.733,19.689,19.689,0,0,1,55.333,48.04Z" transform="translate(28.208 13.196)" fill="#f7f7f7" stroke="#f7f7f7" stroke-width="2"/>
  </g>
</svg>
