<svg id="phone-ringing" xmlns="http://www.w3.org/2000/svg" width="173.841" height="173.841" viewBox="0 0 173.841 173.841">
  <path id="Path_73" data-name="Path 73" d="M124.939,173.841a48.433,48.433,0,0,1-16.616-2.969A177.188,177.188,0,0,1,43.981,129.86,177.177,177.177,0,0,1,2.969,65.518,48.083,48.083,0,0,1,.516,41.884,49.308,49.308,0,0,1,25.857,5.79,48.407,48.407,0,0,1,49.035,0a5.433,5.433,0,0,1,5.312,4.294l8.527,39.791a5.434,5.434,0,0,1-1.47,4.98L46.833,63.634a142.994,142.994,0,0,0,63.373,63.373l14.569-14.57a5.435,5.435,0,0,1,4.98-1.47l39.791,8.527a5.432,5.432,0,0,1,4.294,5.312,48.4,48.4,0,0,1-5.79,23.178,49.308,49.308,0,0,1-36.094,25.342,48.321,48.321,0,0,1-7.017.516ZM44.694,11.1A38.065,38.065,0,0,0,13.181,61.809a164.77,164.77,0,0,0,98.851,98.851,38.065,38.065,0,0,0,50.707-31.514l-32.37-6.936-15.216,15.216A5.432,5.432,0,0,1,109,138.5,153.821,153.821,0,0,1,35.339,64.839a5.432,5.432,0,0,1,1.076-6.151L51.631,43.472Z" transform="translate(0 0)" fill="#f7f7f7"/>
  <path id="Path_74" data-name="Path 74" d="M326.937,92.349a5.433,5.433,0,0,1-5.432-5.432,76.138,76.138,0,0,0-76.052-76.052,5.432,5.432,0,1,1,0-10.865,86.916,86.916,0,0,1,86.917,86.917,5.432,5.432,0,0,1-5.432,5.432Z" transform="translate(-158.529)" fill="#f7f7f7"/>
  <path id="Path_75" data-name="Path 75" d="M305.208,134.62a5.433,5.433,0,0,1-5.432-5.432,54.385,54.385,0,0,0-54.323-54.323,5.432,5.432,0,1,1,0-10.865,65.262,65.262,0,0,1,65.188,65.188A5.432,5.432,0,0,1,305.208,134.62Z" transform="translate(-158.529 -42.271)" fill="#f7f7f7"/>
  <path id="Path_76" data-name="Path 76" d="M283.478,176.891a5.433,5.433,0,0,1-5.432-5.432,32.631,32.631,0,0,0-32.594-32.594,5.432,5.432,0,1,1,0-10.865,43.507,43.507,0,0,1,43.458,43.458A5.432,5.432,0,0,1,283.478,176.891Z" transform="translate(-158.529 -84.542)" fill="#f7f7f7"/>
</svg>
